<?xml version="1.0" encoding="UTF-8" standalone="no"?>
<svg
   xmlns:dc="http://purl.org/dc/elements/1.1/"
   xmlns:cc="http://creativecommons.org/ns#"
   xmlns:rdf="http://www.w3.org/1999/02/22-rdf-syntax-ns#"
   xmlns:svg="http://www.w3.org/2000/svg"
   xmlns="http://www.w3.org/2000/svg"
   version="1.1"
   id="svg2"
   viewBox="0 0 583.00604 291.75335"
   height="82.339279mm"
   width="164.53726mm">
  <defs
     id="defs4" />
  <metadata
     id="metadata7">
    <rdf:RDF>
      <cc:Work
         rdf:about="">
        <dc:format>image/svg+xml</dc:format>
        <dc:type
           rdf:resource="http://purl.org/dc/dcmitype/StillImage" />
        <dc:title></dc:title>
      </cc:Work>
    </rdf:RDF>
  </metadata>
  <g
     transform="translate(-44.715834,-341.13746)"
     id="layer1">
    <g
       id="text3396"
       style="font-style:normal;font-variant:normal;font-weight:normal;font-stretch:normal;font-size:311.58905029px;line-height:125%;font-family:KaiTi;-inkscape-font-specification:'KaiTi, Normal';text-align:start;letter-spacing:0px;word-spacing:0px;writing-mode:lr-tb;text-anchor:start;fill:#000000;fill-opacity:1;stroke:none;stroke-width:1px;stroke-linecap:butt;stroke-linejoin:miter;stroke-opacity:1">
      <path
         id="path3401"
         style=""
         d="m 168.24642,463.89684 q 30.42862,-7.30287 42.60007,-9.73716 13.38859,-2.43429 21.9086,6.08572 8.52002,7.30287 -4.86858,9.73716 -12.17144,1.21715 -24.34289,2.43429 -10.9543,1.21715 -35.2972,6.08572 l 2.43429,4.86858 q 13.38859,15.82288 32.86291,34.08006 20.69146,17.04002 47.46864,30.42861 27.99433,13.3886 46.2515,19.47432 18.25717,6.08572 2.43429,8.52001 -15.82288,1.21715 -38.94863,1.21715 -23.12575,-1.21715 -35.2972,-14.60574 -12.17144,-13.38859 -24.34289,-29.21147 -12.17145,-15.82288 -32.86291,-40.16578 0,43.81721 -1.21714,71.81154 0,26.77718 -2.43429,41.38292 -1.21715,14.60574 -6.08573,15.82288 -3.65143,1.21715 -8.52001,-8.52001 -4.86858,-8.52001 -3.65143,-17.04003 1.21714,-9.73716 2.43429,-21.9086 2.43429,-12.17145 3.65143,-27.99433 1.21714,-17.04003 1.21714,-41.38292 -19.47431,29.21147 -45.03435,49.90293 -24.342895,20.69146 -43.81721,26.77719 -18.257171,6.08572 -1.217145,-4.86858 17.040026,-10.95431 41.382925,-36.51434 25.56004,-25.56004 42.60006,-58.42295 -23.12575,6.08572 -35.2972,7.30287 -12.17144,1.21714 -23.125746,-4.86858 -10.954302,-6.08573 4.868579,-6.08573 15.822877,-1.21714 59.640087,-12.17144 -1.21714,-24.3429 -9.73715,-35.2972 -7.30287,-10.9543 10.9543,-4.86858 18.25717,4.86858 15.82288,12.17145 -2.43429,7.30287 -2.43429,25.56004 z M 91.566304,416.42819 q -8.520013,26.77719 -17.040026,37.73149 -8.520014,10.9543 -13.388592,-2.43429 -3.651435,-13.38859 2.434289,-21.9086 7.302868,-8.52002 12.171447,-23.12575 6.085724,-14.60574 8.520013,-12.17145 2.43429,2.43429 7.302869,15.82288 13.388596,-3.65143 43.817206,-7.30287 31.64577,-4.86858 59.6401,-9.73716 29.21147,-6.08572 37.73148,-8.52001 8.52002,-3.65143 18.25717,2.43429 10.95431,6.08572 19.47432,17.04003 8.52001,9.73715 -1.21715,10.9543 -8.52001,0 -20.69146,3.65143 -10.9543,2.43429 -23.12575,9.73716 -12.17144,6.08572 -4.86858,-3.65143 8.52002,-10.95431 10.95431,-18.25717 2.43429,-8.52002 -6.08573,-8.52002 -7.30286,0 -25.56004,2.43429 -18.25717,2.43429 -46.2515,7.30287 -27.99432,4.86858 -40.16577,7.30287 -12.17145,2.43429 -21.908606,1.21714 z m 54.771516,-40.16577 q -6.08573,-8.52002 -9.73716,-17.04003 -3.65144,-9.73716 12.17145,-3.65143 17.04002,4.86858 19.47431,14.60573 3.65144,9.73716 1.21715,17.04003 -2.43429,6.08572 -9.73716,2.43429 -7.30287,-4.86858 -13.38859,-13.38859 z" />
      <path
         id="path3403"
         style=""
         d="m 457.92687,395.73673 q 21.9086,-7.30287 26.77718,-4.86858 6.08572,1.21715 6.08572,4.86858 1.21715,2.43429 -6.08572,6.08573 -6.08572,3.65143 -27.99433,8.52001 l -3.65143,23.12575 q 13.38859,-3.65143 18.25717,-6.08572 6.08572,-2.43429 24.34289,8.52001 18.25717,10.9543 9.73716,18.25717 -8.52001,6.08572 -15.82288,21.9086 -6.08572,14.60574 -10.9543,25.56004 -3.65144,9.73716 -12.17145,2.43429 l -17.04003,3.65144 0,20.69146 q 14.60574,-3.65144 25.56004,-6.08573 10.95431,-2.43429 13.38859,1.21715 2.43429,3.65143 -3.65143,6.08572 -6.08572,2.43429 -35.2972,9.73716 1.21715,48.68579 -4.86858,60.85724 -6.08572,12.17144 -10.9543,-1.21715 -3.65143,-12.17145 -2.43429,-20.69146 1.21715,-8.52001 2.43429,-34.08005 -57.2058,15.82288 -64.50867,21.9086 -7.30287,6.08573 -21.9086,-6.08572 -13.3886,-12.17145 7.30286,-10.9543 20.69147,0 79.11441,-17.04003 0,-13.38859 -1.21714,-21.9086 l -14.60574,4.86858 q -8.52001,13.38859 -17.04003,-13.3886 -9.73715,-36.51434 -17.04002,-45.03435 -7.30287,-8.52001 0,-8.52001 7.30287,-1.21715 14.60574,0 8.52001,0 41.38292,-9.73716 l 2.43429,-24.3429 q -9.73716,2.43429 -15.82289,3.65144 -6.08572,0 -14.60573,-3.65144 -7.30287,-4.86858 3.65143,-7.30286 10.9543,-2.43429 27.99433,-7.30287 2.43429,-31.64577 -4.86858,-40.16578 -6.08572,-8.52001 3.65144,-7.30287 9.73715,1.21715 19.47431,4.86858 10.9543,3.65144 4.86858,9.73716 -4.86858,6.08572 -8.52001,29.21147 z m 82.76584,52.33723 q 8.52001,0 18.25717,-2.43429 10.9543,-3.65144 15.82288,2.43429 6.08572,6.08572 -6.08572,8.52001 -10.95431,2.43429 -29.21148,0 0,18.25717 -2.43429,38.94863 8.52002,0 20.69146,-1.21714 12.17145,-2.43429 17.04003,4.86857 6.08572,6.08573 -6.08572,8.52002 -12.17145,1.21714 -32.86291,-1.21715 -8.52001,43.81721 -25.56004,65.72582 -15.82288,21.9086 -32.86291,32.86291 -17.04002,10.9543 -4.86858,-2.43429 13.3886,-12.17145 26.77719,-36.51435 14.60573,-25.56003 19.47431,-53.55436 4.86858,-29.21148 4.86858,-63.29153 0,-34.08005 -6.08572,-45.03435 -6.08573,-12.17145 0,-12.17145 6.08572,0 13.38859,2.43429 7.30287,2.43429 17.04003,1.21714 10.9543,-2.43429 20.69146,-6.08572 10.9543,-3.65144 14.60573,-6.08572 4.86858,-3.65144 13.3886,1.21714 9.73715,4.86858 17.04002,9.73716 7.30287,4.86858 -1.21714,13.38859 -7.30287,7.30287 -8.52002,46.2515 -1.21714,37.73149 1.21715,82.76584 3.65143,45.03436 1.21714,55.98866 -2.43429,9.73716 -9.73715,20.69146 -7.30287,10.9543 -12.17145,-2.43429 -4.86858,-12.17145 -12.17145,-19.47432 -6.08572,-7.30286 -14.60574,-14.60573 -7.30286,-7.30287 8.52002,-2.43429 15.82288,4.86858 18.25717,2.43429 3.65143,-3.65144 3.65143,-27.99433 l 0,-65.72582 q 0,-41.38292 -1.21714,-63.29152 0,-21.90861 -6.08573,-21.90861 -6.08572,-1.21714 -40.16577,7.30287 l 0,42.60007 z m -131.45163,27.99432 q 15.82288,-3.65143 29.21147,-9.73715 14.60574,-6.08573 20.69146,0 6.08573,6.08572 -12.17145,10.9543 -18.25717,4.86858 -36.51434,7.30287 2.43429,9.73716 4.86858,20.69146 38.94863,-9.73716 51.12008,-9.73716 6.08572,-18.25717 8.52001,-35.2972 3.65144,-18.25717 -4.86858,-18.25717 -7.30286,-1.21714 -25.56004,3.65144 -18.25717,4.86858 -38.94863,9.73715 1.21715,8.52002 3.65144,20.69146 z" />
    </g>
  </g>
</svg>
